<svg width="512" height="512" viewBox="120 0 624 624" fill="none" xmlns="http://www.w3.org/2000/svg">
<path d="M697.852 225.093C679.025 168.799 642.426 120.142 593.562 86.4418C544.698 52.7414 486.211 35.8206 426.901 38.225C367.592 40.6294 310.667 62.2289 264.691 99.774C218.715 137.319 186.175 188.779 171.966 246.412C157.757 304.044 162.648 364.733 185.903 419.346C209.158 473.959 249.52 519.544 300.915 549.242C352.31 578.939 411.959 591.144 470.889 584.019C529.818 576.894 584.84 550.825 627.676 509.735" stroke="#292929" stroke-width="24"/>
<path d="M619.273 517.897L615.652 520.965L614.534 520.184L617.843 516.808H558.322L558.001 516.491L558 497.317L558.321 497H638.679L639 497.317V576.683L638.679 577H619.594L619.273 576.683V517.897Z" fill="#292929"/>
</svg>
