<svg width="1372" height="624" viewBox="0 0 1372 624" fill="none" xmlns="http://www.w3.org/2000/svg">
<path d="M622.852 225.093C604.025 168.799 567.426 120.142 518.562 86.4418C469.698 52.7414 411.211 35.8206 351.901 38.225C292.592 40.6294 235.667 62.2289 189.691 99.774C143.715 137.319 111.175 188.779 96.966 246.412C82.7572 304.044 87.6482 364.733 110.903 419.346C134.158 473.959 174.52 519.544 225.915 549.242C277.31 578.939 336.959 591.144 395.889 584.019C454.818 576.894 509.84 550.825 552.676 509.735" stroke="white" stroke-width="24"/>
<path d="M544.273 517.897L540.652 520.965L539.534 520.184L542.843 516.808H483.322L483.001 516.491L483 497.317L483.321 497H563.679L564 497.317V576.683L563.679 577H544.594L544.273 576.683V517.897Z" fill="white"/>
<path d="M36.0029 170H1337V434H36.0029C36.0029 434 36 369.969 36 302.969C36 235.969 36.0029 170 36.0029 170Z" fill="#FFD957"/>
<path d="M543.326 388.628L543.275 369.878L524.525 369.93L524.319 294.93L505.569 294.982L505.518 276.232L524.267 276.18L524.216 257.43L542.966 257.379L542.914 238.629L561.664 238.577L561.767 276.077L618.017 275.923L618.069 294.673L561.819 294.827L562.025 369.827L580.775 369.775L580.723 351.026L618.223 350.923L618.274 369.673L599.525 369.724L599.576 388.474L543.326 388.628ZM730.826 388.114L730.568 294.364L711.818 294.415L711.767 275.665L749.267 275.563L749.318 294.312L768.068 294.261L768.325 388.011L730.826 388.114ZM637.076 388.371L637.024 369.621L655.774 369.57L655.414 238.32L636.664 238.372L636.613 219.622L692.862 219.467L693.068 294.467L711.818 294.415L711.87 313.165L693.12 313.217L693.326 388.217L637.076 388.371ZM787.075 387.959L787.024 369.209L824.524 369.106L824.318 294.107L786.818 294.21L786.766 275.46L861.766 275.254L862.024 369.003L899.523 368.9L899.575 387.65L787.075 387.959ZM824.215 256.607L824.112 219.107L861.612 219.004L861.715 256.504L824.215 256.607ZM918.325 387.599L918.016 275.099L1011.77 274.842L1011.82 293.592L1030.57 293.54L1030.82 387.29L993.325 387.393L993.067 293.643L955.567 293.746L955.825 387.496L918.325 387.599ZM1049.57 387.238L1049.52 368.489L1068.27 368.437L1067.91 237.188L1049.16 237.239L1049.11 218.489L1105.36 218.335L1105.62 312.084L1124.37 312.033L1124.32 293.283L1143.07 293.231L1143.02 274.482L1180.51 274.379L1180.57 293.129L1161.82 293.18L1161.87 311.93L1143.12 311.981L1143.17 330.731L1161.92 330.68L1161.97 349.43L1180.72 349.378L1180.82 386.878L1143.32 386.981L1143.22 349.481L1124.47 349.533L1124.42 330.783L1105.67 330.834L1105.82 387.084L1049.57 387.238Z" fill="#292929"/>
<mask id="path-5-outside-1_45_56" maskUnits="userSpaceOnUse" x="156.999" y="105" width="303.003" height="394.002" fill="black">
<rect fill="white" x="156.999" y="105" width="303.003" height="394.002"/>
<path d="M397.177 481.348C369.238 480.918 358.062 480.273 342.158 467.163C331.627 458.136 310.995 411.713 307.986 399.893C301.969 381.409 299.604 374.102 295.736 350.891C294.447 343.798 293.372 337.996 292.942 337.995C292.297 337.995 282.626 345.518 267.581 356.908C259.199 390.651 259.414 391.725 251.247 435.784C248.453 447.819 249.098 450.828 249.313 457.706C241.79 462.864 242.435 463.079 234.698 463.508C231.904 463.508 233.623 460.285 233.194 460.285C232.334 461.789 231.904 462.864 231.474 462.864L226.531 463.293C224.382 463.293 223.522 462.864 223.522 461.574L223.737 462.004C223.522 460.714 223.092 460.07 222.448 460.07C221.803 460.07 221.373 461.359 219.868 461.359C217.719 461.359 214.496 459.855 213.636 458.135C213.206 456.846 212.776 453.622 213.206 450.828C214.066 447.819 214.066 445.025 214.066 444.166C213.851 438.793 223.308 386.567 223.093 385.707C222.233 385.707 218.579 386.997 214.281 388.931C208.048 391.725 202.031 393.229 197.517 393.229C194.723 393.229 192.574 392.799 191.07 391.725C183.118 386.567 180.539 384.417 180.754 383.558C180.968 382.698 179.679 381.194 178.175 380.334C175.81 378.4 174.521 375.606 175.166 373.242L175.596 371.952C176.455 370.663 183.333 366.579 185.267 366.579C186.342 366.579 186.771 367.224 188.276 367.869C190.21 367.869 194.509 365.72 201.601 361.206C220.729 348.956 223.093 347.666 232.979 339.929L242.221 299.954C246.52 282.976 249.099 281.041 256.406 253.747C260.92 238.272 265.003 224.517 266.078 223.013C267.582 220.434 269.947 213.342 270.806 209.688C271.236 208.184 271.451 207.324 271.021 207.324C269.302 207.969 250.389 222.153 248.454 224.517C247.81 225.377 247.38 225.807 247.165 226.667C246.735 227.956 247.81 230.32 247.165 233.114C246.52 235.908 245.231 238.272 240.717 238.272C237.708 238.272 234.27 237.627 232.55 236.553C230.831 234.833 229.971 235.693 226.318 230.75C223.309 226.022 221.589 226.451 222.019 225.377C222.234 224.517 221.375 222.798 220.085 221.293C217.936 218.499 217.076 214.631 217.936 211.622C218.796 207.538 224.598 201.951 235.345 193.569C246.52 185.187 266.938 171.002 268.442 171.002C273.815 167.994 271.021 169.498 276.394 166.704C292.299 156.603 328.835 137.905 336.357 135.971C363.007 127.374 379.341 122.001 394.816 122.001C397.61 122.001 399.974 122.216 401.908 122.861C416.738 126.3 423.615 131.028 429.418 142.634C436.08 155.099 438.014 166.705 435.22 177.666C431.996 187.552 428.128 195.504 418.456 211.838C413.943 218.931 401.907 235.264 398.039 239.348C384.929 253.962 376.117 263.849 375.042 264.493C374.827 264.923 368.809 270.511 362.147 277.388C342.374 297.591 336.356 302.749 327.974 308.982C329.909 311.561 331.413 313.065 331.843 317.793C332.273 323.166 336.786 346.593 338.075 353.685C340.439 366.58 348.176 388.717 351.4 399.248C362.791 436.214 370.957 448.68 378.48 455.557C384.282 460.93 387.721 463.295 392.234 463.295C398.037 463.295 414.156 455.343 416.306 455.343C416.735 455.343 416.735 455.773 418.025 455.773L422.538 455.558C426.192 455.558 426.622 457.062 428.341 457.062L436.508 457.062C440.806 457.062 441.666 457.277 441.881 459.641C442.526 461.146 442.311 462.435 442.311 462.865C441.451 465.874 423.398 475.76 412.222 479.199C406.849 480.703 404.055 481.348 397.177 481.348ZM226.316 433.849C227.606 433.635 228.68 430.841 229.755 426.757L230.615 422.674C231.474 416.656 231.26 411.928 229.97 411.928C228.895 412.143 227.606 414.722 226.746 418.59L225.887 423.103C224.812 429.121 225.027 433.849 226.316 433.849ZM232.549 400.967C233.839 400.967 235.343 399.247 235.773 397.098C236.418 395.164 238.137 383.773 236.848 383.773C235.558 383.773 231.69 395.164 231.045 397.098C230.615 399.247 231.26 400.967 232.549 400.967ZM273.814 335.846C274.244 335.846 278.543 332.407 283.701 328.539C288.214 325.1 291.438 321.876 291.653 321.017C289.933 321.017 273.814 335.416 273.814 335.846ZM276.823 326.605C277.898 326.605 291.008 316.289 291.223 314.999L291.008 314.999C289.074 314.999 280.907 321.232 276.823 326.39L276.823 326.605ZM277.468 321.017C278.113 321.017 291.438 310.701 291.868 308.981C292.513 306.617 298.745 301.244 300.68 301.244L301.539 301.459C304.118 301.459 311.211 293.507 332.058 274.594C336.786 270.726 349.897 256.541 366.66 238.488C367.735 237.843 378.266 225.378 378.481 224.303C378.266 224.303 375.257 227.312 371.604 231.396C363.437 240.207 354.625 248.804 350.111 253.102C346.888 255.896 322.387 279.322 318.518 282.331C314.22 285.77 288.644 309.196 282.841 313.28C279.617 315.859 277.253 318.653 276.823 320.157C276.608 320.587 276.823 321.017 277.468 321.017ZM284.346 308.336C297.026 298.235 306.697 290.713 312.5 285.125C316.369 281.687 318.303 279.752 318.518 279.322C317.229 279.322 284.346 307.907 284.346 308.336ZM313.575 304.683C314.434 304.683 317.873 301.674 330.124 290.069C335.497 284.911 340.225 280.612 340.87 280.612C341.944 280.182 349.252 272.445 349.681 271.156C348.822 271.156 326.47 291.358 319.593 296.946C315.294 300.385 313.575 302.104 313.36 303.179L313.145 303.823C313.36 304.253 313.145 304.683 313.575 304.683ZM304.763 304.468C306.482 304.468 329.049 282.976 329.264 282.546C312.5 295.656 304.763 302.104 304.333 304.038C304.118 304.253 304.333 304.468 304.763 304.468ZM283.701 300.169C294.232 292.218 296.596 289.209 320.023 269.436C328.19 262.559 349.467 240.852 368.38 220.65C388.797 198.943 402.552 176.591 408.785 155.529C409.645 152.735 409 152.305 407.711 152.09C406.636 151.446 404.272 151.231 401.478 151.231C377.407 151.23 343.879 165.2 320.668 176.591L318.304 187.122C315.94 196.363 307.987 221.939 297.241 254.177C293.158 265.997 290.149 277.603 283.701 300.169ZM320.452 277.388C321.097 277.388 322.387 276.099 324.536 273.735C324.106 273.735 323.031 274.594 321.957 275.669C321.097 276.529 320.452 277.173 320.452 277.388ZM334.637 277.388C335.712 277.388 336.571 276.529 337.861 275.024L337.646 274.809C336.356 274.809 335.497 275.669 334.422 277.173C334.422 277.388 334.422 277.388 334.637 277.388ZM327.975 271.156C328.619 271.156 329.479 270.726 330.124 269.651C330.124 269.436 329.909 269.221 329.694 269.221C329.049 269.221 327.975 269.866 327.545 270.726C327.545 270.941 327.545 271.156 327.975 271.156ZM350.541 270.081C351.616 270.081 352.046 269.651 352.475 268.577L352.046 268.362C351.186 268.362 350.756 268.792 350.111 269.651L350.541 270.081ZM243.082 212.482C244.371 212.482 265.863 195.503 272.096 191.635C274.675 189.915 276.824 188.626 277.039 187.981L277.039 187.766C274.675 187.766 245.876 208.398 242.867 212.482L243.082 212.482ZM232.765 208.613C234.27 208.613 242.652 202.166 252.323 193.784C240.503 201.736 233.195 206.894 232.765 208.398L232.765 208.613ZM247.38 202.381C250.389 200.446 249.314 201.521 251.463 198.727C251.034 198.727 247.38 201.736 247.38 202.381ZM255.117 197.008L258.341 194.214C256.407 195.288 255.332 196.148 255.117 196.793L255.117 197.008ZM253.183 194.214C253.828 194.214 255.977 191.85 260.49 188.196C255.332 191.85 252.968 193.354 252.968 193.999L253.183 194.214ZM260.92 188.626C261.135 188.626 262.21 187.766 263.714 186.692C264.574 186.047 265.218 185.187 265.218 184.972C265.004 184.972 263.929 185.832 262.424 186.692L260.92 188.626ZM266.293 184.972C266.938 184.972 270.377 182.178 270.591 181.534L270.591 181.319C270.162 181.319 266.508 184.113 266.293 184.972ZM273.171 180.889C274.245 180.459 275.105 180.029 275.32 179.169C275.32 178.954 275.105 178.74 274.89 178.74C274.03 178.954 273.171 179.169 272.956 180.459L273.171 180.889ZM357.203 438.579C357.418 437.289 347.316 416.227 344.737 408.919C343.878 405.481 334.636 379.905 333.562 376.037C332.702 371.523 324.106 345.088 323.246 339.07C322.386 335.202 321.097 333.053 319.377 332.838C319.162 332.838 318.948 333.053 318.733 333.267C318.518 334.342 320.882 347.452 322.386 348.097C324.32 348.957 325.825 354.33 325.18 356.694C324.75 357.768 324.535 357.339 324.105 358.628C323.461 361.637 327.329 369.374 333.777 389.362C334.851 394.305 341.514 408.275 349.68 425.898C349.68 426.973 356.343 438.149 357.203 438.579ZM335.926 419.451C336.355 417.731 324.535 386.997 321.741 377.326C319.162 368.299 318.732 368.514 317.013 368.084C315.938 368.299 315.509 368.084 315.079 368.944C314.864 370.449 316.798 375.607 323.675 391.941C326.684 399.033 329.263 405.481 329.048 406.77L328.833 406.985C328.833 408.49 334.206 418.806 335.926 419.451Z"/>
</mask>
<path d="M397.177 481.348C369.238 480.918 358.062 480.273 342.158 467.163C331.627 458.136 310.995 411.713 307.986 399.893C301.969 381.409 299.604 374.102 295.736 350.891C294.447 343.798 293.372 337.996 292.942 337.995C292.297 337.995 282.626 345.518 267.581 356.908C259.199 390.651 259.414 391.725 251.247 435.784C248.453 447.819 249.098 450.828 249.313 457.706C241.79 462.864 242.435 463.079 234.698 463.508C231.904 463.508 233.623 460.285 233.194 460.285C232.334 461.789 231.904 462.864 231.474 462.864L226.531 463.293C224.382 463.293 223.522 462.864 223.522 461.574L223.737 462.004C223.522 460.714 223.092 460.07 222.448 460.07C221.803 460.07 221.373 461.359 219.868 461.359C217.719 461.359 214.496 459.855 213.636 458.135C213.206 456.846 212.776 453.622 213.206 450.828C214.066 447.819 214.066 445.025 214.066 444.166C213.851 438.793 223.308 386.567 223.093 385.707C222.233 385.707 218.579 386.997 214.281 388.931C208.048 391.725 202.031 393.229 197.517 393.229C194.723 393.229 192.574 392.799 191.07 391.725C183.118 386.567 180.539 384.417 180.754 383.558C180.968 382.698 179.679 381.194 178.175 380.334C175.81 378.4 174.521 375.606 175.166 373.242L175.596 371.952C176.455 370.663 183.333 366.579 185.267 366.579C186.342 366.579 186.771 367.224 188.276 367.869C190.21 367.869 194.509 365.72 201.601 361.206C220.729 348.956 223.093 347.666 232.979 339.929L242.221 299.954C246.52 282.976 249.099 281.041 256.406 253.747C260.92 238.272 265.003 224.517 266.078 223.013C267.582 220.434 269.947 213.342 270.806 209.688C271.236 208.184 271.451 207.324 271.021 207.324C269.302 207.969 250.389 222.153 248.454 224.517C247.81 225.377 247.38 225.807 247.165 226.667C246.735 227.956 247.81 230.32 247.165 233.114C246.52 235.908 245.231 238.272 240.717 238.272C237.708 238.272 234.27 237.627 232.55 236.553C230.831 234.833 229.971 235.693 226.318 230.75C223.309 226.022 221.589 226.451 222.019 225.377C222.234 224.517 221.375 222.798 220.085 221.293C217.936 218.499 217.076 214.631 217.936 211.622C218.796 207.538 224.598 201.951 235.345 193.569C246.52 185.187 266.938 171.002 268.442 171.002C273.815 167.994 271.021 169.498 276.394 166.704C292.299 156.603 328.835 137.905 336.357 135.971C363.007 127.374 379.341 122.001 394.816 122.001C397.61 122.001 399.974 122.216 401.908 122.861C416.738 126.3 423.615 131.028 429.418 142.634C436.08 155.099 438.014 166.705 435.22 177.666C431.996 187.552 428.128 195.504 418.456 211.838C413.943 218.931 401.907 235.264 398.039 239.348C384.929 253.962 376.117 263.849 375.042 264.493C374.827 264.923 368.809 270.511 362.147 277.388C342.374 297.591 336.356 302.749 327.974 308.982C329.909 311.561 331.413 313.065 331.843 317.793C332.273 323.166 336.786 346.593 338.075 353.685C340.439 366.58 348.176 388.717 351.4 399.248C362.791 436.214 370.957 448.68 378.48 455.557C384.282 460.93 387.721 463.295 392.234 463.295C398.037 463.295 414.156 455.343 416.306 455.343C416.735 455.343 416.735 455.773 418.025 455.773L422.538 455.558C426.192 455.558 426.622 457.062 428.341 457.062L436.508 457.062C440.806 457.062 441.666 457.277 441.881 459.641C442.526 461.146 442.311 462.435 442.311 462.865C441.451 465.874 423.398 475.76 412.222 479.199C406.849 480.703 404.055 481.348 397.177 481.348ZM226.316 433.849C227.606 433.635 228.68 430.841 229.755 426.757L230.615 422.674C231.474 416.656 231.26 411.928 229.97 411.928C228.895 412.143 227.606 414.722 226.746 418.59L225.887 423.103C224.812 429.121 225.027 433.849 226.316 433.849ZM232.549 400.967C233.839 400.967 235.343 399.247 235.773 397.098C236.418 395.164 238.137 383.773 236.848 383.773C235.558 383.773 231.69 395.164 231.045 397.098C230.615 399.247 231.26 400.967 232.549 400.967ZM273.814 335.846C274.244 335.846 278.543 332.407 283.701 328.539C288.214 325.1 291.438 321.876 291.653 321.017C289.933 321.017 273.814 335.416 273.814 335.846ZM276.823 326.605C277.898 326.605 291.008 316.289 291.223 314.999L291.008 314.999C289.074 314.999 280.907 321.232 276.823 326.39L276.823 326.605ZM277.468 321.017C278.113 321.017 291.438 310.701 291.868 308.981C292.513 306.617 298.745 301.244 300.68 301.244L301.539 301.459C304.118 301.459 311.211 293.507 332.058 274.594C336.786 270.726 349.897 256.541 366.66 238.488C367.735 237.843 378.266 225.378 378.481 224.303C378.266 224.303 375.257 227.312 371.604 231.396C363.437 240.207 354.625 248.804 350.111 253.102C346.888 255.896 322.387 279.322 318.518 282.331C314.22 285.77 288.644 309.196 282.841 313.28C279.617 315.859 277.253 318.653 276.823 320.157C276.608 320.587 276.823 321.017 277.468 321.017ZM284.346 308.336C297.026 298.235 306.697 290.713 312.5 285.125C316.369 281.687 318.303 279.752 318.518 279.322C317.229 279.322 284.346 307.907 284.346 308.336ZM313.575 304.683C314.434 304.683 317.873 301.674 330.124 290.069C335.497 284.911 340.225 280.612 340.87 280.612C341.944 280.182 349.252 272.445 349.681 271.156C348.822 271.156 326.47 291.358 319.593 296.946C315.294 300.385 313.575 302.104 313.36 303.179L313.145 303.823C313.36 304.253 313.145 304.683 313.575 304.683ZM304.763 304.468C306.482 304.468 329.049 282.976 329.264 282.546C312.5 295.656 304.763 302.104 304.333 304.038C304.118 304.253 304.333 304.468 304.763 304.468ZM283.701 300.169C294.232 292.218 296.596 289.209 320.023 269.436C328.19 262.559 349.467 240.852 368.38 220.65C388.797 198.943 402.552 176.591 408.785 155.529C409.645 152.735 409 152.305 407.711 152.09C406.636 151.446 404.272 151.231 401.478 151.231C377.407 151.23 343.879 165.2 320.668 176.591L318.304 187.122C315.94 196.363 307.987 221.939 297.241 254.177C293.158 265.997 290.149 277.603 283.701 300.169ZM320.452 277.388C321.097 277.388 322.387 276.099 324.536 273.735C324.106 273.735 323.031 274.594 321.957 275.669C321.097 276.529 320.452 277.173 320.452 277.388ZM334.637 277.388C335.712 277.388 336.571 276.529 337.861 275.024L337.646 274.809C336.356 274.809 335.497 275.669 334.422 277.173C334.422 277.388 334.422 277.388 334.637 277.388ZM327.975 271.156C328.619 271.156 329.479 270.726 330.124 269.651C330.124 269.436 329.909 269.221 329.694 269.221C329.049 269.221 327.975 269.866 327.545 270.726C327.545 270.941 327.545 271.156 327.975 271.156ZM350.541 270.081C351.616 270.081 352.046 269.651 352.475 268.577L352.046 268.362C351.186 268.362 350.756 268.792 350.111 269.651L350.541 270.081ZM243.082 212.482C244.371 212.482 265.863 195.503 272.096 191.635C274.675 189.915 276.824 188.626 277.039 187.981L277.039 187.766C274.675 187.766 245.876 208.398 242.867 212.482L243.082 212.482ZM232.765 208.613C234.27 208.613 242.652 202.166 252.323 193.784C240.503 201.736 233.195 206.894 232.765 208.398L232.765 208.613ZM247.38 202.381C250.389 200.446 249.314 201.521 251.463 198.727C251.034 198.727 247.38 201.736 247.38 202.381ZM255.117 197.008L258.341 194.214C256.407 195.288 255.332 196.148 255.117 196.793L255.117 197.008ZM253.183 194.214C253.828 194.214 255.977 191.85 260.49 188.196C255.332 191.85 252.968 193.354 252.968 193.999L253.183 194.214ZM260.92 188.626C261.135 188.626 262.21 187.766 263.714 186.692C264.574 186.047 265.218 185.187 265.218 184.972C265.004 184.972 263.929 185.832 262.424 186.692L260.92 188.626ZM266.293 184.972C266.938 184.972 270.377 182.178 270.591 181.534L270.591 181.319C270.162 181.319 266.508 184.113 266.293 184.972ZM273.171 180.889C274.245 180.459 275.105 180.029 275.32 179.169C275.32 178.954 275.105 178.74 274.89 178.74C274.03 178.954 273.171 179.169 272.956 180.459L273.171 180.889ZM357.203 438.579C357.418 437.289 347.316 416.227 344.737 408.919C343.878 405.481 334.636 379.905 333.562 376.037C332.702 371.523 324.106 345.088 323.246 339.07C322.386 335.202 321.097 333.053 319.377 332.838C319.162 332.838 318.948 333.053 318.733 333.267C318.518 334.342 320.882 347.452 322.386 348.097C324.32 348.957 325.825 354.33 325.18 356.694C324.75 357.768 324.535 357.339 324.105 358.628C323.461 361.637 327.329 369.374 333.777 389.362C334.851 394.305 341.514 408.275 349.68 425.898C349.68 426.973 356.343 438.149 357.203 438.579ZM335.926 419.451C336.355 417.731 324.535 386.997 321.741 377.326C319.162 368.299 318.732 368.514 317.013 368.084C315.938 368.299 315.509 368.084 315.079 368.944C314.864 370.449 316.798 375.607 323.675 391.941C326.684 399.033 329.263 405.481 329.048 406.77L328.833 406.985C328.833 408.49 334.206 418.806 335.926 419.451Z" fill="#292929"/>
<path d="M397.177 481.348C369.238 480.918 358.062 480.273 342.158 467.163C331.627 458.136 310.995 411.713 307.986 399.893C301.969 381.409 299.604 374.102 295.736 350.891C294.447 343.798 293.372 337.996 292.942 337.995C292.297 337.995 282.626 345.518 267.581 356.908C259.199 390.651 259.414 391.725 251.247 435.784C248.453 447.819 249.098 450.828 249.313 457.706C241.79 462.864 242.435 463.079 234.698 463.508C231.904 463.508 233.623 460.285 233.194 460.285C232.334 461.789 231.904 462.864 231.474 462.864L226.531 463.293C224.382 463.293 223.522 462.864 223.522 461.574L223.737 462.004C223.522 460.714 223.092 460.07 222.448 460.07C221.803 460.07 221.373 461.359 219.868 461.359C217.719 461.359 214.496 459.855 213.636 458.135C213.206 456.846 212.776 453.622 213.206 450.828C214.066 447.819 214.066 445.025 214.066 444.166C213.851 438.793 223.308 386.567 223.093 385.707C222.233 385.707 218.579 386.997 214.281 388.931C208.048 391.725 202.031 393.229 197.517 393.229C194.723 393.229 192.574 392.799 191.07 391.725C183.118 386.567 180.539 384.417 180.754 383.558C180.968 382.698 179.679 381.194 178.175 380.334C175.81 378.4 174.521 375.606 175.166 373.242L175.596 371.952C176.455 370.663 183.333 366.579 185.267 366.579C186.342 366.579 186.771 367.224 188.276 367.869C190.21 367.869 194.509 365.72 201.601 361.206C220.729 348.956 223.093 347.666 232.979 339.929L242.221 299.954C246.52 282.976 249.099 281.041 256.406 253.747C260.92 238.272 265.003 224.517 266.078 223.013C267.582 220.434 269.947 213.342 270.806 209.688C271.236 208.184 271.451 207.324 271.021 207.324C269.302 207.969 250.389 222.153 248.454 224.517C247.81 225.377 247.38 225.807 247.165 226.667C246.735 227.956 247.81 230.32 247.165 233.114C246.52 235.908 245.231 238.272 240.717 238.272C237.708 238.272 234.27 237.627 232.55 236.553C230.831 234.833 229.971 235.693 226.318 230.75C223.309 226.022 221.589 226.451 222.019 225.377C222.234 224.517 221.375 222.798 220.085 221.293C217.936 218.499 217.076 214.631 217.936 211.622C218.796 207.538 224.598 201.951 235.345 193.569C246.52 185.187 266.938 171.002 268.442 171.002C273.815 167.994 271.021 169.498 276.394 166.704C292.299 156.603 328.835 137.905 336.357 135.971C363.007 127.374 379.341 122.001 394.816 122.001C397.61 122.001 399.974 122.216 401.908 122.861C416.738 126.3 423.615 131.028 429.418 142.634C436.08 155.099 438.014 166.705 435.22 177.666C431.996 187.552 428.128 195.504 418.456 211.838C413.943 218.931 401.907 235.264 398.039 239.348C384.929 253.962 376.117 263.849 375.042 264.493C374.827 264.923 368.809 270.511 362.147 277.388C342.374 297.591 336.356 302.749 327.974 308.982C329.909 311.561 331.413 313.065 331.843 317.793C332.273 323.166 336.786 346.593 338.075 353.685C340.439 366.58 348.176 388.717 351.4 399.248C362.791 436.214 370.957 448.68 378.48 455.557C384.282 460.93 387.721 463.295 392.234 463.295C398.037 463.295 414.156 455.343 416.306 455.343C416.735 455.343 416.735 455.773 418.025 455.773L422.538 455.558C426.192 455.558 426.622 457.062 428.341 457.062L436.508 457.062C440.806 457.062 441.666 457.277 441.881 459.641C442.526 461.146 442.311 462.435 442.311 462.865C441.451 465.874 423.398 475.76 412.222 479.199C406.849 480.703 404.055 481.348 397.177 481.348ZM226.316 433.849C227.606 433.635 228.68 430.841 229.755 426.757L230.615 422.674C231.474 416.656 231.26 411.928 229.97 411.928C228.895 412.143 227.606 414.722 226.746 418.59L225.887 423.103C224.812 429.121 225.027 433.849 226.316 433.849ZM232.549 400.967C233.839 400.967 235.343 399.247 235.773 397.098C236.418 395.164 238.137 383.773 236.848 383.773C235.558 383.773 231.69 395.164 231.045 397.098C230.615 399.247 231.26 400.967 232.549 400.967ZM273.814 335.846C274.244 335.846 278.543 332.407 283.701 328.539C288.214 325.1 291.438 321.876 291.653 321.017C289.933 321.017 273.814 335.416 273.814 335.846ZM276.823 326.605C277.898 326.605 291.008 316.289 291.223 314.999L291.008 314.999C289.074 314.999 280.907 321.232 276.823 326.39L276.823 326.605ZM277.468 321.017C278.113 321.017 291.438 310.701 291.868 308.981C292.513 306.617 298.745 301.244 300.68 301.244L301.539 301.459C304.118 301.459 311.211 293.507 332.058 274.594C336.786 270.726 349.897 256.541 366.66 238.488C367.735 237.843 378.266 225.378 378.481 224.303C378.266 224.303 375.257 227.312 371.604 231.396C363.437 240.207 354.625 248.804 350.111 253.102C346.888 255.896 322.387 279.322 318.518 282.331C314.22 285.77 288.644 309.196 282.841 313.28C279.617 315.859 277.253 318.653 276.823 320.157C276.608 320.587 276.823 321.017 277.468 321.017ZM284.346 308.336C297.026 298.235 306.697 290.713 312.5 285.125C316.369 281.687 318.303 279.752 318.518 279.322C317.229 279.322 284.346 307.907 284.346 308.336ZM313.575 304.683C314.434 304.683 317.873 301.674 330.124 290.069C335.497 284.911 340.225 280.612 340.87 280.612C341.944 280.182 349.252 272.445 349.681 271.156C348.822 271.156 326.47 291.358 319.593 296.946C315.294 300.385 313.575 302.104 313.36 303.179L313.145 303.823C313.36 304.253 313.145 304.683 313.575 304.683ZM304.763 304.468C306.482 304.468 329.049 282.976 329.264 282.546C312.5 295.656 304.763 302.104 304.333 304.038C304.118 304.253 304.333 304.468 304.763 304.468ZM283.701 300.169C294.232 292.218 296.596 289.209 320.023 269.436C328.19 262.559 349.467 240.852 368.38 220.65C388.797 198.943 402.552 176.591 408.785 155.529C409.645 152.735 409 152.305 407.711 152.09C406.636 151.446 404.272 151.231 401.478 151.231C377.407 151.23 343.879 165.2 320.668 176.591L318.304 187.122C315.94 196.363 307.987 221.939 297.241 254.177C293.158 265.997 290.149 277.603 283.701 300.169ZM320.452 277.388C321.097 277.388 322.387 276.099 324.536 273.735C324.106 273.735 323.031 274.594 321.957 275.669C321.097 276.529 320.452 277.173 320.452 277.388ZM334.637 277.388C335.712 277.388 336.571 276.529 337.861 275.024L337.646 274.809C336.356 274.809 335.497 275.669 334.422 277.173C334.422 277.388 334.422 277.388 334.637 277.388ZM327.975 271.156C328.619 271.156 329.479 270.726 330.124 269.651C330.124 269.436 329.909 269.221 329.694 269.221C329.049 269.221 327.975 269.866 327.545 270.726C327.545 270.941 327.545 271.156 327.975 271.156ZM350.541 270.081C351.616 270.081 352.046 269.651 352.475 268.577L352.046 268.362C351.186 268.362 350.756 268.792 350.111 269.651L350.541 270.081ZM243.082 212.482C244.371 212.482 265.863 195.503 272.096 191.635C274.675 189.915 276.824 188.626 277.039 187.981L277.039 187.766C274.675 187.766 245.876 208.398 242.867 212.482L243.082 212.482ZM232.765 208.613C234.27 208.613 242.652 202.166 252.323 193.784C240.503 201.736 233.195 206.894 232.765 208.398L232.765 208.613ZM247.38 202.381C250.389 200.446 249.314 201.521 251.463 198.727C251.034 198.727 247.38 201.736 247.38 202.381ZM255.117 197.008L258.341 194.214C256.407 195.288 255.332 196.148 255.117 196.793L255.117 197.008ZM253.183 194.214C253.828 194.214 255.977 191.85 260.49 188.196C255.332 191.85 252.968 193.354 252.968 193.999L253.183 194.214ZM260.92 188.626C261.135 188.626 262.21 187.766 263.714 186.692C264.574 186.047 265.218 185.187 265.218 184.972C265.004 184.972 263.929 185.832 262.424 186.692L260.92 188.626ZM266.293 184.972C266.938 184.972 270.377 182.178 270.591 181.534L270.591 181.319C270.162 181.319 266.508 184.113 266.293 184.972ZM273.171 180.889C274.245 180.459 275.105 180.029 275.32 179.169C275.32 178.954 275.105 178.74 274.89 178.74C274.03 178.954 273.171 179.169 272.956 180.459L273.171 180.889ZM357.203 438.579C357.418 437.289 347.316 416.227 344.737 408.919C343.878 405.481 334.636 379.905 333.562 376.037C332.702 371.523 324.106 345.088 323.246 339.07C322.386 335.202 321.097 333.053 319.377 332.838C319.162 332.838 318.948 333.053 318.733 333.267C318.518 334.342 320.882 347.452 322.386 348.097C324.32 348.957 325.825 354.33 325.18 356.694C324.75 357.768 324.535 357.339 324.105 358.628C323.461 361.637 327.329 369.374 333.777 389.362C334.851 394.305 341.514 408.275 349.68 425.898C349.68 426.973 356.343 438.149 357.203 438.579ZM335.926 419.451C336.355 417.731 324.535 386.997 321.741 377.326C319.162 368.299 318.732 368.514 317.013 368.084C315.938 368.299 315.509 368.084 315.079 368.944C314.864 370.449 316.798 375.607 323.675 391.941C326.684 399.033 329.263 405.481 329.048 406.77L328.833 406.985C328.833 408.49 334.206 418.806 335.926 419.451Z" stroke="#FFD957" stroke-width="34" mask="url(#path-5-outside-1_45_56)"/>
<path d="M400.42 402.257C392.253 402.257 386.021 400.538 379.573 398.603C366.248 394.735 360.015 375.177 364.099 348.742C364.959 344.013 365.819 339.285 367.108 334.557C374.201 306.188 389.46 277.173 409.878 258.475C420.409 249.234 427.501 245.151 437.388 244.076L442.761 243.861C444.265 243.861 445.769 243.861 447.274 244.076C460.599 244.936 477.793 255.682 480.157 264.279C481.016 266.428 481.016 270.082 480.586 273.735L480.156 276.744C475.643 294.797 456.085 308.982 440.611 312.85C439.107 313.28 437.387 313.71 435.668 313.925L430.725 314.14C422.773 314.14 414.391 312.85 411.167 312.85C410.092 312.85 409.448 313.065 409.448 313.495C408.588 314.355 403.86 324.456 401.28 335.202C400.206 339.5 399.561 344.014 399.346 348.097C399.131 364.216 403.859 374.102 409.017 378.616C409.447 378.831 409.877 378.831 410.307 378.831L411.166 378.831C422.772 378.831 440.826 359.058 454.795 345.518C460.169 337.996 469.84 330.044 470.7 330.044C471.129 330.044 471.129 330.259 471.129 330.904C470.7 332.408 471.559 333.053 473.064 333.053L473.279 333.053C473.709 333.053 475.643 333.268 479.511 334.773C481.016 334.558 481.016 334.128 482.95 333.268C483.595 333.483 484.025 333.913 485.099 333.913C486.604 333.913 487.248 334.128 487.248 336.922C485.959 342.295 447.273 391.726 428.145 398.174C424.276 399.678 414.82 401.182 407.513 401.827L400.42 402.257ZM373.771 351.751L381.508 324.671C387.096 309.411 398.702 286.63 409.018 272.66C410.737 270.081 411.812 268.577 412.027 267.932C411.597 268.147 409.663 269.866 406.439 273.52C393.114 288.779 383.657 307.477 378.284 328.754C375.705 339.715 375.92 339.93 373.771 351.751ZM394.618 333.697L395.048 332.623C395.048 331.763 395.263 331.978 394.833 331.333C394.833 331.333 394.618 331.763 394.403 332.623L394.618 333.697ZM395.907 328.969L396.122 328.754L396.767 327.68L396.337 326.175L396.122 326.605L395.907 328.969ZM397.197 324.241C397.412 324.241 402.14 313.495 402.785 310.916C403 310.486 402.785 310.701 402.785 310.271C402.355 310.271 397.412 322.737 397.197 324.241ZM394.618 316.074C394.833 316.074 398.057 309.841 398.272 308.337L398.272 307.907C396.982 308.122 396.122 311.561 394.403 315.859L394.618 316.074ZM392.039 310.056L392.469 309.411L392.039 308.122L391.824 308.552C391.609 309.197 391.824 309.197 392.039 310.056ZM392.684 307.262C392.899 307.262 407.728 281.687 408.158 279.967C407.084 280.182 400.206 290.713 396.767 297.806C394.403 302.964 393.114 305.973 392.684 307.047L392.684 307.262ZM420.623 297.376L424.707 297.161C435.238 296.087 447.059 282.762 449.423 273.305C450.712 267.287 448.348 261.7 447.704 261.7C445.769 261.914 438.247 268.147 433.089 273.52C428.576 278.893 418.259 294.152 417.615 296.516C417.615 297.161 418.689 297.376 420.623 297.376ZM404.075 296.516C404.504 296.516 405.149 296.086 405.364 295.227C410.092 286.63 412.886 282.332 413.316 280.827L413.316 280.612C409.663 284.266 404.075 293.292 403.215 295.872C403.215 296.301 403.215 296.516 403.645 296.516L404.075 296.516ZM400.851 295.442C401.281 295.442 404.075 291.143 404.505 290.069L404.505 289.639C404.29 289.639 401.066 294.152 400.851 295.227L400.851 295.442ZM388.171 296.516C394.188 286.63 391.394 291.573 396.338 282.117C395.908 281.687 389.89 292.218 389.03 294.582L388.171 296.516ZM463.393 285.556C464.037 285.341 465.327 283.407 467.046 279.108C467.046 278.893 467.046 278.893 466.831 278.893C466.187 278.893 465.327 280.613 463.393 285.126L463.393 285.556ZM452.647 285.556C453.291 285.556 457.375 281.687 458.235 278.463C459.094 274.38 458.45 276.314 459.094 272.446C455.011 281.042 453.076 284.481 452.647 285.556ZM458.235 285.341C458.449 285.341 461.243 281.472 461.673 279.968C461.673 279.323 461.888 279.323 461.673 279.323C459.524 282.332 458.45 283.836 458.235 284.911L458.235 285.341Z" fill="#292929"/>
<path d="M281.5 170C265.833 180 233 201.1 227 205.5H228.5L238 219.5L284.5 191.5L281.5 170Z" fill="#292929"/>
<path d="M297.5 294L275 307L267.5 342L343.5 288L391 238.5L381 219.5L336 261L297.5 294Z" fill="#292929"/>
<path d="M216.5 442.5L231.5 377.5H247.5L229.5 446L216.5 442.5Z" fill="#292929"/>
<path d="M329 430L300 339L324.5 323.5L339 372L362 446L357.5 449.5L329 430Z" fill="#292929"/>
<path d="M383.5 299L370 352.5L376.5 360.5L396.5 345L404.5 313L422.5 280L414.5 264L394 281.5L383.5 299Z" fill="#292929"/>
<path d="M458.5 266.5L447.5 288L461.5 294L474.5 280L458.5 266.5Z" fill="#292929"/>
<path d="M470 453.5C465.5 465 454.5 475 454.5 475L447.5 455L391 453L376 428L474.5 431.5C474.5 431.5 474.5 442 470 453.5Z" fill="#FFD957"/>
</svg>
