<svg width="861" height="624" viewBox="0 0 861 624" fill="none" xmlns="http://www.w3.org/2000/svg">
<path d="M697.852 225.093C679.025 168.799 642.426 120.142 593.562 86.4418C544.698 52.7414 486.211 35.8206 426.901 38.225C367.592 40.6294 310.667 62.2289 264.691 99.774C218.715 137.319 186.175 188.779 171.966 246.412C157.757 304.044 162.648 364.733 185.903 419.346C209.158 473.959 249.52 519.544 300.915 549.242C352.31 578.939 411.959 591.144 470.889 584.019C529.818 576.894 584.84 550.825 627.676 509.735" stroke="#292929" stroke-width="24"/>
<path d="M619.273 517.897L615.652 520.965L614.534 520.184L617.843 516.808H558.322L558.001 516.491L558 497.317L558.321 497H638.679L639 497.317V576.683L638.679 577H619.594L619.273 576.683V517.897Z" fill="#292929"/>
<path d="M500.895 424.342L500.826 399.342L475.826 399.411L475.552 299.411L450.552 299.48L450.483 274.48L475.483 274.411L475.414 249.411L500.414 249.343L500.346 224.343L525.346 224.274L525.483 274.274L600.483 274.068L600.551 299.068L525.552 299.274L525.826 399.273L550.826 399.205L550.757 374.205L600.757 374.068L600.826 399.068L575.826 399.136L575.895 424.136L500.895 424.342Z" fill="#292929"/>
<path d="M458.177 480.096C430.238 479.666 419.062 479.021 403.158 465.911C392.627 456.884 371.995 410.461 368.986 398.641C362.969 380.157 360.604 372.85 356.736 349.639C355.447 342.546 354.372 336.744 353.942 336.744C353.297 336.744 343.626 344.266 328.581 355.656C320.199 389.399 320.414 390.473 312.247 434.532C309.453 446.567 310.098 449.576 310.313 456.454C302.79 461.612 303.435 461.827 295.698 462.257C292.904 462.256 294.623 459.033 294.194 459.033C293.334 460.537 292.904 461.612 292.474 461.612L287.531 462.042C285.382 462.042 284.522 461.612 284.522 460.322L284.737 460.752C284.522 459.462 284.092 458.818 283.448 458.818C282.803 458.818 282.373 460.107 280.868 460.107C278.719 460.107 275.496 458.603 274.636 456.883C274.206 455.594 273.776 452.37 274.206 449.576C275.066 446.567 275.066 443.773 275.066 442.914C274.851 437.541 284.308 385.315 284.093 384.455C283.233 384.455 279.579 385.745 275.281 387.679C269.048 390.473 263.031 391.977 258.517 391.977C255.723 391.977 253.574 391.548 252.07 390.473C244.118 385.315 241.539 383.166 241.754 382.306C241.968 381.446 240.679 379.942 239.175 379.082C236.81 377.148 235.521 374.354 236.166 371.99L236.596 370.7C237.455 369.411 244.333 365.327 246.267 365.327C247.342 365.327 247.771 365.972 249.276 366.617C251.21 366.617 255.509 364.468 262.601 359.954C281.729 347.704 284.093 346.414 293.979 338.677L303.221 298.702C307.52 281.724 310.099 279.789 317.406 252.495C321.92 237.02 326.003 223.266 327.078 221.761C328.582 219.182 330.947 212.09 331.806 208.436C332.236 206.932 332.451 206.072 332.021 206.072C330.302 206.717 311.389 220.901 309.454 223.265C308.81 224.125 308.38 224.555 308.165 225.415C307.735 226.704 308.81 229.068 308.165 231.862C307.52 234.656 306.231 237.02 301.717 237.02C298.708 237.02 295.27 236.375 293.55 235.301C291.831 233.581 290.971 234.441 287.318 229.498C284.309 224.77 282.589 225.2 283.019 224.125C283.234 223.265 282.375 221.546 281.085 220.041C278.936 217.247 278.076 213.379 278.936 210.37C279.796 206.287 285.598 200.699 296.345 192.317C307.52 183.935 327.938 169.75 329.442 169.75C334.815 166.742 332.021 168.246 337.394 165.452C353.299 155.351 389.835 136.653 397.357 134.719C424.007 126.122 440.341 120.749 455.816 120.749C458.61 120.75 460.974 120.964 462.908 121.609C477.738 125.048 484.615 129.776 490.418 141.382C497.08 153.847 499.014 165.453 496.22 176.414C492.996 186.3 489.128 194.252 479.456 210.586C474.943 217.679 462.907 234.012 459.039 238.096C445.929 252.71 437.117 262.597 436.042 263.241C435.827 263.671 429.809 269.259 423.147 276.137C403.374 296.339 397.356 301.497 388.974 307.73C390.909 310.309 392.413 311.813 392.843 316.541C393.273 321.914 397.786 345.341 399.075 352.433C401.439 365.328 409.176 387.465 412.4 397.996C423.791 434.962 431.957 447.428 439.48 454.305C445.282 459.678 448.721 462.043 453.234 462.043C459.037 462.043 475.156 454.091 477.306 454.091C477.735 454.091 477.735 454.521 479.025 454.521L483.538 454.306C487.192 454.306 487.622 455.81 489.341 455.81L497.508 455.81C501.806 455.81 502.666 456.025 502.881 458.389C503.526 459.894 503.311 461.183 503.311 461.613C502.451 464.622 484.398 474.508 473.222 477.947C467.849 479.451 465.055 480.096 458.177 480.096ZM287.316 432.597C288.606 432.383 289.68 429.589 290.755 425.505L291.615 421.422C292.474 415.404 292.26 410.676 290.97 410.676C289.895 410.891 288.606 413.47 287.746 417.338L286.887 421.851C285.812 427.869 286.027 432.597 287.316 432.597ZM293.549 399.715C294.839 399.715 296.343 397.995 296.773 395.846C297.418 393.912 299.137 382.521 297.848 382.521C296.558 382.521 292.69 393.912 292.045 395.846C291.615 397.995 292.26 399.715 293.549 399.715ZM334.814 334.594C335.244 334.594 339.543 331.156 344.701 327.287C349.214 323.848 352.438 320.625 352.653 319.765C350.933 319.765 334.814 334.164 334.814 334.594ZM337.823 325.353C338.898 325.353 352.008 315.037 352.223 313.747L352.008 313.747C350.074 313.747 341.907 319.98 337.823 325.138L337.823 325.353ZM338.468 319.765C339.113 319.765 352.438 309.449 352.868 307.729C353.513 305.365 359.745 299.992 361.68 299.992L362.539 300.207C365.118 300.207 372.211 292.255 393.058 273.342C397.786 269.474 410.897 255.289 427.66 237.236C428.735 236.591 439.266 224.126 439.481 223.051C439.266 223.051 436.257 226.06 432.604 230.144C424.437 238.955 415.625 247.552 411.111 251.85C407.888 254.644 383.387 278.071 379.518 281.079C375.22 284.518 349.644 307.944 343.841 312.028C340.617 314.607 338.253 317.401 337.823 318.905C337.608 319.335 337.823 319.765 338.468 319.765ZM345.346 307.085C358.026 296.983 367.697 289.461 373.5 283.873C377.369 280.435 379.303 278.5 379.518 278.071C378.229 278.071 345.346 306.655 345.346 307.085ZM374.575 303.431C375.434 303.431 378.873 300.422 391.124 288.817C396.497 283.659 401.225 279.36 401.87 279.36C402.944 278.93 410.252 271.193 410.681 269.904C409.822 269.904 387.47 290.106 380.593 295.694C376.294 299.133 374.575 300.852 374.36 301.927L374.145 302.571C374.36 303.001 374.145 303.431 374.575 303.431ZM365.763 303.216C367.482 303.216 390.049 281.724 390.264 281.294C373.5 294.404 365.763 300.852 365.333 302.786C365.118 303.001 365.333 303.216 365.763 303.216ZM344.701 298.918C355.232 290.966 357.596 287.957 381.023 268.184C389.19 261.307 410.467 239.6 429.38 219.398C449.797 197.691 463.552 175.339 469.785 154.277C470.645 151.483 470 151.053 468.711 150.838C467.636 150.194 465.272 149.979 462.478 149.979C438.407 149.979 404.879 163.948 381.668 175.339L379.304 185.87C376.94 195.111 368.987 220.687 358.241 252.925C354.158 264.745 351.149 276.351 344.701 298.918ZM381.452 276.136C382.097 276.136 383.387 274.847 385.536 272.483C385.106 272.483 384.031 273.342 382.957 274.417C382.097 275.277 381.452 275.921 381.452 276.136ZM395.637 276.136C396.712 276.136 397.571 275.277 398.861 273.772L398.646 273.557C397.356 273.557 396.497 274.417 395.422 275.921C395.422 276.136 395.422 276.136 395.637 276.136ZM388.975 269.904C389.619 269.904 390.479 269.474 391.124 268.399C391.124 268.184 390.909 267.969 390.694 267.969C390.049 267.969 388.975 268.614 388.545 269.474C388.545 269.689 388.545 269.904 388.975 269.904ZM411.541 268.829C412.616 268.829 413.046 268.399 413.475 267.325L413.046 267.11C412.186 267.11 411.756 267.54 411.111 268.399L411.541 268.829ZM304.082 211.23C305.371 211.23 326.863 194.251 333.096 190.383C335.675 188.663 337.824 187.374 338.039 186.729L338.039 186.514C335.675 186.514 306.876 207.146 303.867 211.23L304.082 211.23ZM293.765 207.361C295.27 207.361 303.652 200.914 313.323 192.532C301.503 200.484 294.195 205.642 293.765 207.146L293.765 207.361ZM308.38 201.129C311.389 199.194 310.314 200.269 312.463 197.475C312.034 197.475 308.38 200.484 308.38 201.129ZM316.117 195.756L319.341 192.962C317.407 194.036 316.332 194.896 316.117 195.541L316.117 195.756ZM314.183 192.962C314.828 192.962 316.977 190.598 321.49 186.944C316.332 190.598 313.968 192.102 313.968 192.747L314.183 192.962ZM321.92 187.374C322.135 187.374 323.21 186.514 324.714 185.44C325.574 184.795 326.218 183.935 326.218 183.72C326.004 183.72 324.929 184.58 323.424 185.44L321.92 187.374ZM327.293 183.72C327.938 183.72 331.377 180.926 331.591 180.282L331.591 180.067C331.162 180.067 327.508 182.861 327.293 183.72ZM334.171 179.637C335.245 179.207 336.105 178.777 336.32 177.917C336.32 177.703 336.105 177.488 335.89 177.488C335.03 177.703 334.171 177.917 333.956 179.207L334.171 179.637ZM418.203 437.327C418.418 436.037 408.316 414.975 405.737 407.668C404.878 404.229 395.636 378.653 394.562 374.785C393.702 370.271 385.106 343.836 384.246 337.818C383.386 333.95 382.097 331.801 380.377 331.586C380.162 331.586 379.948 331.801 379.733 332.015C379.518 333.09 381.882 346.2 383.386 346.845C385.32 347.705 386.825 353.078 386.18 355.442C385.75 356.516 385.535 356.087 385.105 357.376C384.461 360.385 388.329 368.122 394.777 388.11C395.851 393.053 402.514 407.023 410.68 424.646C410.68 425.721 417.343 436.897 418.203 437.327ZM396.926 418.199C397.355 416.479 385.535 385.746 382.741 376.074C380.162 367.047 379.732 367.262 378.013 366.833C376.938 367.047 376.509 366.833 376.079 367.692C375.864 369.197 377.798 374.355 384.675 390.689C387.684 397.781 390.263 404.229 390.048 405.518L389.833 405.733C389.833 407.238 395.206 417.554 396.926 418.199Z" fill="#292929"/>
<path d="M342.5 168.748C326.833 178.748 294 199.848 288 204.248H289.5L299 218.248L345.5 190.248L342.5 168.748Z" fill="#292929"/>
<path d="M358.5 292.748L336 305.748L328.5 340.748L404.5 286.748L452 237.248L442 218.248L397 259.748L358.5 292.748Z" fill="#292929"/>
<path d="M277.5 441.248L292.5 376.248H308.5L290.5 444.748L277.5 441.248Z" fill="#292929"/>
<path d="M390 428.748L361 337.748L385.5 322.248L400 370.748L423 444.748L418.5 448.248L390 428.748Z" fill="#292929"/>
</svg>
