<svg width="1372" height="624" viewBox="0 0 1372 624" fill="none" xmlns="http://www.w3.org/2000/svg">
<path d="M621.852 225.093C603.025 168.799 566.426 120.142 517.562 86.4418C468.698 52.7414 410.211 35.8206 350.901 38.225C291.592 40.6294 234.667 62.2289 188.691 99.774C142.715 137.319 110.175 188.779 95.966 246.412C81.7572 304.044 86.6482 364.733 109.903 419.346C133.158 473.959 173.52 519.544 224.915 549.242C276.31 578.939 335.959 591.144 394.889 584.019C453.818 576.894 508.84 550.825 551.676 509.735" stroke="#292929" stroke-width="24"/>
<path d="M543.273 517.897L539.652 520.965L538.534 520.184L541.843 516.808H482.322L482.001 516.491L482 497.317L482.321 497H562.679L563 497.317V576.683L562.679 577H543.594L543.273 576.683V517.897Z" fill="#292929"/>
<path d="M35.0029 170H1336V434H35.0029C35.0029 434 35 369.969 35 302.969C35 235.969 35.0029 170 35.0029 170Z" fill="#FFD957"/>
<path d="M542.326 388.628L542.275 369.878L523.525 369.93L523.319 294.93L504.569 294.982L504.518 276.232L523.267 276.18L523.216 257.43L541.966 257.379L541.914 238.629L560.664 238.577L560.767 276.077L617.017 275.923L617.069 294.673L560.819 294.827L561.025 369.827L579.775 369.775L579.723 351.026L617.223 350.923L617.274 369.673L598.525 369.724L598.576 388.474L542.326 388.628ZM729.826 388.114L729.568 294.364L710.818 294.415L710.767 275.665L748.267 275.563L748.318 294.312L767.068 294.261L767.325 388.011L729.826 388.114ZM636.076 388.371L636.024 369.621L654.774 369.57L654.414 238.32L635.664 238.372L635.613 219.622L691.862 219.467L692.068 294.467L710.818 294.415L710.87 313.165L692.12 313.217L692.326 388.217L636.076 388.371ZM786.075 387.959L786.024 369.209L823.524 369.106L823.318 294.107L785.818 294.21L785.766 275.46L860.766 275.254L861.024 369.003L898.523 368.9L898.575 387.65L786.075 387.959ZM823.215 256.607L823.112 219.107L860.612 219.004L860.715 256.504L823.215 256.607ZM917.325 387.599L917.016 275.099L1010.77 274.842L1010.82 293.592L1029.57 293.54L1029.82 387.29L992.325 387.393L992.067 293.643L954.567 293.746L954.825 387.496L917.325 387.599ZM1048.57 387.238L1048.52 368.489L1067.27 368.437L1066.91 237.188L1048.16 237.239L1048.11 218.489L1104.36 218.335L1104.62 312.084L1123.37 312.033L1123.32 293.283L1142.07 293.231L1142.02 274.482L1179.51 274.379L1179.57 293.129L1160.82 293.18L1160.87 311.93L1142.12 311.981L1142.17 330.731L1160.92 330.68L1160.97 349.43L1179.72 349.378L1179.82 386.878L1142.32 386.981L1142.22 349.481L1123.47 349.533L1123.42 330.783L1104.67 330.834L1104.82 387.084L1048.57 387.238Z" fill="#292929"/>
<path d="M399.422 402.257C391.255 402.257 385.023 400.538 378.575 398.603C365.25 394.735 359.017 375.177 363.101 348.742C363.961 344.013 364.821 339.285 366.11 334.557C373.203 306.188 388.462 277.173 408.88 258.475C419.411 249.234 426.503 245.151 436.39 244.076L441.763 243.861C443.267 243.861 444.771 243.861 446.276 244.076C459.601 244.936 476.794 255.682 479.159 264.279C480.018 266.428 480.018 270.082 479.588 273.735L479.158 276.744C474.645 294.797 455.087 308.982 439.613 312.85C438.108 313.28 436.389 313.71 434.67 313.925L429.727 314.14C421.775 314.14 413.393 312.85 410.169 312.85C409.094 312.85 408.449 313.065 408.449 313.495C407.59 314.355 402.861 324.456 400.282 335.202C399.208 339.5 398.563 344.014 398.348 348.097C398.133 364.216 402.861 374.102 408.019 378.616C408.449 378.831 408.879 378.831 409.309 378.831L410.168 378.831C421.774 378.831 439.828 359.058 453.797 345.518C459.17 337.996 468.842 330.044 469.702 330.044C470.131 330.044 470.131 330.259 470.131 330.904C469.702 332.408 470.561 333.053 472.066 333.053L472.281 333.053C472.71 333.053 474.645 333.268 478.513 334.773C480.018 334.558 480.018 334.128 481.952 333.268C482.597 333.483 483.027 333.913 484.101 333.913C485.606 333.913 486.25 334.128 486.25 336.922C484.961 342.295 446.275 391.726 427.147 398.174C423.278 399.678 413.822 401.182 406.515 401.827L399.422 402.257ZM372.772 351.751L380.51 324.671C386.098 309.411 397.704 286.63 408.02 272.66C409.739 270.081 410.814 268.577 411.029 267.932C410.599 268.147 408.665 269.866 405.441 273.52C392.116 288.779 382.659 307.477 377.286 328.754C374.707 339.715 374.922 339.93 372.772 351.751ZM393.62 333.697L394.05 332.623C394.05 331.763 394.265 331.978 393.835 331.333C393.835 331.333 393.62 331.763 393.405 332.623L393.62 333.697ZM394.909 328.969L395.124 328.754L395.769 327.68L395.339 326.175L395.124 326.605L394.909 328.969ZM396.199 324.241C396.414 324.241 401.142 313.495 401.787 310.916C402.002 310.486 401.787 310.701 401.787 310.271C401.357 310.271 396.414 322.737 396.199 324.241ZM393.62 316.074C393.835 316.074 397.059 309.841 397.274 308.337L397.274 307.907C395.984 308.122 395.124 311.561 393.405 315.859L393.62 316.074ZM391.041 310.056L391.471 309.411L391.041 308.122L390.826 308.552C390.611 309.197 390.826 309.197 391.041 310.056ZM391.686 307.262C391.901 307.262 406.73 281.687 407.16 279.967C406.086 280.182 399.208 290.713 395.769 297.806C393.405 302.964 392.116 305.973 391.686 307.047L391.686 307.262ZM419.625 297.376L423.709 297.161C434.24 296.087 446.061 282.762 448.425 273.305C449.714 267.287 447.35 261.7 446.706 261.7C444.771 261.914 437.249 268.147 432.091 273.52C427.578 278.893 417.261 294.152 416.617 296.516C416.617 297.161 417.691 297.376 419.625 297.376ZM403.077 296.516C403.506 296.516 404.151 296.086 404.366 295.227C409.094 286.63 411.888 282.332 412.318 280.827L412.318 280.612C408.665 284.266 403.077 293.292 402.217 295.872C402.217 296.301 402.217 296.516 402.647 296.516L403.077 296.516ZM399.853 295.442C400.283 295.442 403.077 291.143 403.506 290.069L403.506 289.639C403.292 289.639 400.068 294.152 399.853 295.227L399.853 295.442ZM387.173 296.516C393.19 286.63 390.396 291.573 395.34 282.117C394.91 281.687 388.892 292.218 388.032 294.582L387.173 296.516ZM462.395 285.556C463.039 285.341 464.329 283.407 466.048 279.108C466.048 278.893 466.048 278.893 465.833 278.893C465.189 278.893 464.329 280.613 462.395 285.126L462.395 285.556ZM451.649 285.556C452.293 285.556 456.377 281.687 457.237 278.463C458.096 274.38 457.452 276.314 458.096 272.446C454.013 281.042 452.078 284.481 451.649 285.556ZM457.237 285.341C457.451 285.341 460.245 281.472 460.675 279.968C460.675 279.323 460.89 279.323 460.675 279.323C458.526 282.332 457.451 283.836 457.237 284.911L457.237 285.341Z" fill="#292929"/>
<path d="M396.177 481.348C368.238 480.918 357.062 480.273 341.158 467.163C330.627 458.136 309.995 411.713 306.986 399.893C300.969 381.409 298.604 374.102 294.736 350.891C293.447 343.798 292.372 337.996 291.942 337.995C291.297 337.995 281.626 345.518 266.581 356.908C258.199 390.651 258.414 391.725 250.247 435.784C247.453 447.819 248.098 450.828 248.313 457.706C240.79 462.864 241.435 463.079 233.698 463.508C230.904 463.508 232.623 460.285 232.194 460.285C231.334 461.789 230.904 462.864 230.474 462.864L225.531 463.293C223.382 463.293 222.522 462.864 222.522 461.574L222.737 462.004C222.522 460.714 222.092 460.07 221.448 460.07C220.803 460.07 220.373 461.359 218.868 461.359C216.719 461.359 213.496 459.855 212.636 458.135C212.206 456.846 211.776 453.622 212.206 450.828C213.066 447.819 213.066 445.025 213.066 444.166C212.851 438.793 222.308 386.567 222.093 385.707C221.233 385.707 217.579 386.997 213.281 388.931C207.048 391.725 201.031 393.229 196.517 393.229C193.723 393.229 191.574 392.799 190.07 391.725C182.118 386.567 179.539 384.417 179.754 383.558C179.968 382.698 178.679 381.194 177.175 380.334C174.81 378.4 173.521 375.606 174.166 373.242L174.596 371.952C175.455 370.663 182.333 366.579 184.267 366.579C185.342 366.579 185.771 367.224 187.276 367.869C189.21 367.869 193.509 365.72 200.601 361.206C219.729 348.956 222.093 347.666 231.979 339.929L241.221 299.954C245.52 282.976 248.099 281.041 255.406 253.747C259.92 238.272 264.003 224.517 265.078 223.013C266.582 220.434 268.947 213.342 269.806 209.688C270.236 208.184 270.451 207.324 270.021 207.324C268.302 207.969 249.389 222.153 247.454 224.517C246.81 225.377 246.38 225.807 246.165 226.667C245.735 227.956 246.81 230.32 246.165 233.114C245.52 235.908 244.231 238.272 239.717 238.272C236.708 238.272 233.27 237.627 231.55 236.553C229.831 234.833 228.971 235.693 225.318 230.75C222.309 226.022 220.589 226.451 221.019 225.377C221.234 224.517 220.375 222.798 219.085 221.293C216.936 218.499 216.076 214.631 216.936 211.622C217.796 207.538 223.598 201.951 234.345 193.569C245.52 185.187 265.938 171.002 267.442 171.002C272.815 167.994 270.021 169.498 275.394 166.704C291.299 156.603 327.835 137.905 335.357 135.971C362.007 127.374 378.341 122.001 393.816 122.001C396.61 122.001 398.974 122.216 400.908 122.861C415.738 126.3 422.615 131.028 428.418 142.634C435.08 155.099 437.014 166.705 434.22 177.666C430.996 187.552 427.128 195.504 417.456 211.838C412.943 218.931 400.907 235.264 397.039 239.348C383.929 253.962 375.117 263.849 374.042 264.493C373.827 264.923 367.809 270.511 361.147 277.388C341.374 297.591 335.356 302.749 326.974 308.982C328.909 311.561 330.413 313.065 330.843 317.793C331.273 323.166 335.786 346.593 337.075 353.685C339.439 366.58 347.176 388.717 350.4 399.248C361.791 436.214 369.957 448.68 377.48 455.557C383.282 460.93 386.721 463.295 391.234 463.295C397.037 463.295 413.156 455.343 415.306 455.343C415.735 455.343 415.735 455.773 417.025 455.773L421.538 455.558C425.192 455.558 425.622 457.062 427.341 457.062L435.508 457.062C439.806 457.062 440.666 457.277 440.881 459.641C441.526 461.146 441.311 462.435 441.311 462.865C440.451 465.874 422.398 475.76 411.222 479.199C405.849 480.703 403.055 481.348 396.177 481.348ZM225.316 433.849C226.606 433.635 227.68 430.841 228.755 426.757L229.615 422.674C230.474 416.656 230.26 411.928 228.97 411.928C227.895 412.143 226.606 414.722 225.746 418.59L224.887 423.103C223.812 429.121 224.027 433.849 225.316 433.849ZM231.549 400.967C232.839 400.967 234.343 399.247 234.773 397.098C235.418 395.164 237.137 383.773 235.848 383.773C234.558 383.773 230.69 395.164 230.045 397.098C229.615 399.247 230.26 400.967 231.549 400.967ZM272.814 335.846C273.244 335.846 277.543 332.407 282.701 328.539C287.214 325.1 290.438 321.876 290.653 321.017C288.933 321.017 272.814 335.416 272.814 335.846ZM275.823 326.605C276.898 326.605 290.008 316.289 290.223 314.999L290.008 314.999C288.074 314.999 279.907 321.232 275.823 326.39L275.823 326.605ZM276.468 321.017C277.113 321.017 290.438 310.701 290.868 308.981C291.513 306.617 297.745 301.244 299.68 301.244L300.539 301.459C303.118 301.459 310.211 293.507 331.058 274.594C335.786 270.726 348.897 256.541 365.66 238.488C366.735 237.843 377.266 225.378 377.481 224.303C377.266 224.303 374.257 227.312 370.604 231.396C362.437 240.207 353.625 248.804 349.111 253.102C345.888 255.896 321.387 279.322 317.518 282.331C313.22 285.77 287.644 309.196 281.841 313.28C278.617 315.859 276.253 318.653 275.823 320.157C275.608 320.587 275.823 321.017 276.468 321.017ZM283.346 308.336C296.026 298.235 305.697 290.713 311.5 285.125C315.369 281.687 317.303 279.752 317.518 279.322C316.229 279.322 283.346 307.907 283.346 308.336ZM312.575 304.683C313.434 304.683 316.873 301.674 329.124 290.069C334.497 284.911 339.225 280.612 339.87 280.612C340.944 280.182 348.252 272.445 348.681 271.156C347.822 271.156 325.47 291.358 318.593 296.946C314.294 300.385 312.575 302.104 312.36 303.179L312.145 303.823C312.36 304.253 312.145 304.683 312.575 304.683ZM303.763 304.468C305.482 304.468 328.049 282.976 328.264 282.546C311.5 295.656 303.763 302.104 303.333 304.038C303.118 304.253 303.333 304.468 303.763 304.468ZM282.701 300.169C293.232 292.218 295.596 289.209 319.023 269.436C327.19 262.559 348.467 240.852 367.38 220.65C387.797 198.943 401.552 176.591 407.785 155.529C408.645 152.735 408 152.305 406.711 152.09C405.636 151.446 403.272 151.231 400.478 151.231C376.407 151.23 342.879 165.2 319.668 176.591L317.304 187.122C314.94 196.363 306.987 221.939 296.241 254.177C292.158 265.997 289.149 277.603 282.701 300.169ZM319.452 277.388C320.097 277.388 321.387 276.099 323.536 273.735C323.106 273.735 322.031 274.594 320.957 275.669C320.097 276.529 319.452 277.173 319.452 277.388ZM333.637 277.388C334.712 277.388 335.571 276.529 336.861 275.024L336.646 274.809C335.356 274.809 334.497 275.669 333.422 277.173C333.422 277.388 333.422 277.388 333.637 277.388ZM326.975 271.156C327.619 271.156 328.479 270.726 329.124 269.651C329.124 269.436 328.909 269.221 328.694 269.221C328.049 269.221 326.975 269.866 326.545 270.726C326.545 270.941 326.545 271.156 326.975 271.156ZM349.541 270.081C350.616 270.081 351.046 269.651 351.475 268.577L351.046 268.362C350.186 268.362 349.756 268.792 349.111 269.651L349.541 270.081ZM242.082 212.482C243.371 212.482 264.863 195.503 271.096 191.635C273.675 189.915 275.824 188.626 276.039 187.981L276.039 187.766C273.675 187.766 244.876 208.398 241.867 212.482L242.082 212.482ZM231.765 208.613C233.27 208.613 241.652 202.166 251.323 193.784C239.503 201.736 232.195 206.894 231.765 208.398L231.765 208.613ZM246.38 202.381C249.389 200.446 248.314 201.521 250.463 198.727C250.034 198.727 246.38 201.736 246.38 202.381ZM254.117 197.008L257.341 194.214C255.407 195.288 254.332 196.148 254.117 196.793L254.117 197.008ZM252.183 194.214C252.828 194.214 254.977 191.85 259.49 188.196C254.332 191.85 251.968 193.354 251.968 193.999L252.183 194.214ZM259.92 188.626C260.135 188.626 261.21 187.766 262.714 186.692C263.574 186.047 264.218 185.187 264.218 184.972C264.004 184.972 262.929 185.832 261.424 186.692L259.92 188.626ZM265.293 184.972C265.938 184.972 269.377 182.178 269.591 181.534L269.591 181.319C269.162 181.319 265.508 184.113 265.293 184.972ZM272.171 180.889C273.245 180.459 274.105 180.029 274.32 179.169C274.32 178.954 274.105 178.74 273.89 178.74C273.03 178.954 272.171 179.169 271.956 180.459L272.171 180.889ZM356.203 438.579C356.418 437.289 346.316 416.227 343.737 408.919C342.878 405.481 333.636 379.905 332.562 376.037C331.702 371.523 323.106 345.088 322.246 339.07C321.386 335.202 320.097 333.053 318.377 332.838C318.162 332.838 317.948 333.053 317.733 333.267C317.518 334.342 319.882 347.452 321.386 348.097C323.32 348.957 324.825 354.33 324.18 356.694C323.75 357.768 323.535 357.339 323.105 358.628C322.461 361.637 326.329 369.374 332.777 389.362C333.851 394.305 340.514 408.275 348.68 425.898C348.68 426.973 355.343 438.149 356.203 438.579ZM334.926 419.451C335.355 417.731 323.535 386.997 320.741 377.326C318.162 368.299 317.732 368.514 316.013 368.084C314.938 368.299 314.509 368.084 314.079 368.944C313.864 370.449 315.798 375.607 322.675 391.941C325.684 399.033 328.263 405.481 328.048 406.77L327.833 406.985C327.833 408.49 333.206 418.806 334.926 419.451Z" fill="#292929"/>
<path d="M280.5 170C264.833 180 232 201.1 226 205.5H227.5L237 219.5L283.5 191.5L280.5 170Z" fill="#292929"/>
<path d="M296.5 294L274 307L266.5 342L342.5 288L390 238.5L380 219.5L335 261L296.5 294Z" fill="#292929"/>
<path d="M215.5 442.5L230.5 377.5H246.5L228.5 446L215.5 442.5Z" fill="#292929"/>
<path d="M328 430L299 339L323.5 323.5L338 372L361 446L356.5 449.5L328 430Z" fill="#292929"/>
<path d="M382.5 299L369 352.5L375.5 360.5L395.5 345L403.5 313L421.5 280L413.5 264L393 281.5L382.5 299Z" fill="#292929"/>
<path d="M457.5 266.5L446.5 288L460.5 294L473.5 280L457.5 266.5Z" fill="#292929"/>
</svg>
